<svg viewBox="0 0 1000 254" xmlns="http://www.w3.org/2000/svg" width="1000" height="254" role="img" aria-label="Public activity summary for lohith">
  <defs>
    <style>
      .mono { font-family: "SFMono-Regular", "Consolas", "Liberation Mono", monospace; }
      .ui { font-family: "Trebuchet MS", "Verdana", sans-serif; }
    </style>
  </defs>
  <rect width="1000" height="254" fill="#04060b" />
  <rect x="24" y="20" width="952" height="210" rx="16" fill="#0b1119" stroke="#273246" />
  <text x="44" y="50" class="mono" fill="#f4d35e" font-size="14">public.signal</text>
  <text x="44" y="78" class="ui" fill="#f3f6fb" font-size="28" font-weight="700">visible GitHub activity</text>
  <text x="44" y="100" class="ui" fill="#7f8aa3" font-size="15">public profile data only. org or private work appears here only when GitHub exposes it publicly.</text>
  <rect x="42" y="122" width="214" height="76" rx="12" fill="#101827" stroke="#273246" />
  <text x="60" y="152" class="ui" fill="#f3f6fb" font-size="30" font-weight="700">27</text>
  <text x="60" y="174" class="ui" fill="#f4d35e" font-size="15">Public Contributions</text>
  <text x="60" y="191" class="mono" fill="#7f8aa3" font-size="11">last 12 months</text>
  <rect x="274" y="122" width="214" height="76" rx="12" fill="#101827" stroke="#273246" />
  <text x="292" y="152" class="ui" fill="#f3f6fb" font-size="30" font-weight="700">14</text>
  <text x="292" y="174" class="ui" fill="#f4d35e" font-size="15">Active Days</text>
  <text x="292" y="191" class="mono" fill="#7f8aa3" font-size="11">days with visible activity</text>
  <rect x="506" y="122" width="214" height="76" rx="12" fill="#101827" stroke="#273246" />
  <text x="524" y="152" class="ui" fill="#f3f6fb" font-size="30" font-weight="700">1</text>
  <text x="524" y="174" class="ui" fill="#f4d35e" font-size="15">Current Streak</text>
  <text x="524" y="191" class="mono" fill="#7f8aa3" font-size="11">consecutive active days</text>
  <rect x="738" y="122" width="214" height="76" rx="12" fill="#101827" stroke="#273246" />
  <text x="756" y="152" class="ui" fill="#f3f6fb" font-size="30" font-weight="700">2</text>
  <text x="756" y="174" class="ui" fill="#f4d35e" font-size="15">Best Streak</text>
  <text x="756" y="191" class="mono" fill="#7f8aa3" font-size="11">longest run so far</text>
  <rect x="44" y="212" width="122" height="24" rx="12" fill="#101827" stroke="#273246" />
  <text x="105.0" y="228" text-anchor="middle" class="mono" fill="#aeb8ca" font-size="12">public repos 1</text>
  <rect x="176" y="212" width="108" height="24" rx="12" fill="#101827" stroke="#273246" />
  <text x="230.0" y="228" text-anchor="middle" class="mono" fill="#aeb8ca" font-size="12">stars 0</text>
  <rect x="294" y="212" width="108" height="24" rx="12" fill="#101827" stroke="#273246" />
  <text x="348.0" y="228" text-anchor="middle" class="mono" fill="#aeb8ca" font-size="12">followers 0</text>
  <rect x="412" y="212" width="108" height="24" rx="12" fill="#101827" stroke="#273246" />
  <text x="466.0" y="228" text-anchor="middle" class="mono" fill="#aeb8ca" font-size="12">following 1</text>
</svg>