<svg viewBox="0 0 1000 404" xmlns="http://www.w3.org/2000/svg" width="1000" height="404" role="img" aria-label="Gotham-inspired profile banner for lohith">
  <defs>
    <linearGradient id="sky" x1="0" y1="0" x2="0" y2="1">
      <stop offset="0%" stop-color="#000000" />
      <stop offset="52%" stop-color="#02040a" />
      <stop offset="100%" stop-color="#050910" />
    </linearGradient>
    <radialGradient id="moon" cx="50%" cy="50%" r="60%">
      <stop offset="0%" stop-color="#fff9d2" stop-opacity="1" />
      <stop offset="72%" stop-color="#ffe187" stop-opacity="0.98" />
      <stop offset="100%" stop-color="#f5d25f" stop-opacity="0.08" />
    </radialGradient>
    <radialGradient id="vignette" cx="50%" cy="26%" r="92%">
      <stop offset="0%" stop-color="#ffffff" stop-opacity="0" />
      <stop offset="100%" stop-color="#000000" stop-opacity="0.86" />
    </radialGradient>
    <linearGradient id="beam" x1="0" y1="0" x2="1" y2="0">
      <stop offset="0%" stop-color="#f5d25f" stop-opacity="0.4" />
      <stop offset="36%" stop-color="#f5d25f" stop-opacity="0.14" />
      <stop offset="100%" stop-color="#f5d25f" stop-opacity="0" />
    </linearGradient>
    <linearGradient id="panel-grad" x1="0" y1="0" x2="1" y2="1">
      <stop offset="0%" stop-color="#0b1018" />
      <stop offset="100%" stop-color="#03050a" />
    </linearGradient>
    <linearGradient id="panel-sheen" x1="0" y1="0" x2="1" y2="0">
      <stop offset="0%" stop-color="#ffffff" stop-opacity="0" />
      <stop offset="50%" stop-color="#ffffff" stop-opacity="0.08" />
      <stop offset="100%" stop-color="#ffffff" stop-opacity="0" />
    </linearGradient>
    <linearGradient id="name-grad" x1="0" y1="0" x2="1" y2="0">
      <stop offset="0%" stop-color="#ffffff" />
      <stop offset="100%" stop-color="#cfd8e8" />
    </linearGradient>
    <linearGradient id="chip-active" x1="0" y1="0" x2="1" y2="1">
      <stop offset="0%" stop-color="#5a4510" />
      <stop offset="100%" stop-color="#2b2108" />
    </linearGradient>
    <pattern id="grid" width="56" height="56" patternUnits="userSpaceOnUse">
      <path d="M56 0H0V56" fill="none" stroke="#0f1520" stroke-width="1" opacity="0.16" />
    </pattern>
    <filter id="soft-blur">
      <feGaussianBlur stdDeviation="16" />
    </filter>
    <style>
      .display { font-family: "Ubuntu Condensed", "Ubuntu", "Avenir Next Condensed", "Segoe UI", sans-serif; letter-spacing: 0.5px; font-weight: 700; }
      .mono { font-family: "Ubuntu Mono", "SFMono-Regular", "Consolas", "Liberation Mono", monospace; }
      .ui { font-family: "Ubuntu", "Avenir Next", "Segoe UI", "Helvetica Neue", Arial, sans-serif; }
    </style>
  </defs>

  <rect width="1000" height="404" fill="#000000" />
  <rect width="1000" height="286" fill="url(#sky)" />
  <rect width="1000" height="286" fill="url(#grid)" opacity="0.22" />
  <rect width="1000" height="404" fill="url(#vignette)" />

  <g opacity="0.62">
    <circle cx="92" cy="42" r="1.4" fill="#ffffff"><animate attributeName="opacity" values="0.12;0.58;0.12" dur="4.2s" repeatCount="indefinite" /></circle>
    <circle cx="176" cy="72" r="1.2" fill="#ffffff"><animate attributeName="opacity" values="0.16;0.76;0.16" dur="5.3s" repeatCount="indefinite" /></circle>
    <circle cx="312" cy="46" r="1.1" fill="#ffffff"><animate attributeName="opacity" values="0.1;0.54;0.1" dur="3.6s" repeatCount="indefinite" /></circle>
    <circle cx="458" cy="84" r="1.2" fill="#ffffff"><animate attributeName="opacity" values="0.14;0.72;0.14" dur="4.7s" repeatCount="indefinite" /></circle>
    <circle cx="730" cy="60" r="1.3" fill="#ffffff"><animate attributeName="opacity" values="0.1;0.82;0.1" dur="5s" repeatCount="indefinite" /></circle>
    <circle cx="926" cy="46" r="1.5" fill="#ffffff"><animate attributeName="opacity" values="0.12;0.88;0.12" dur="5.8s" repeatCount="indefinite" /></circle>
  </g>

  <g filter="url(#soft-blur)" opacity="0.1">
    <ellipse cx="270" cy="176" rx="230" ry="28" fill="#2d394c">
      <animateTransform attributeName="transform" type="translate" values="-14 0;10 0;-14 0" dur="13s" repeatCount="indefinite" />
    </ellipse>
    <ellipse cx="782" cy="168" rx="190" ry="24" fill="#2d394c">
      <animateTransform attributeName="transform" type="translate" values="12 0;-12 0;12 0" dur="12s" repeatCount="indefinite" />
    </ellipse>
  </g>

  <circle cx="820" cy="84" r="58" fill="#f5d25f" opacity="0.08" filter="url(#soft-blur)" />
  <circle cx="820" cy="84" r="50" fill="url(#moon)" />
  <circle cx="820" cy="84" r="68" fill="none" stroke="#f5d25f" stroke-opacity="0.1">
    <animate attributeName="r" values="64;70;64" dur="4s" repeatCount="indefinite" />
    <animate attributeName="stroke-opacity" values="0.08;0.18;0.08" dur="4s" repeatCount="indefinite" />
  </circle>

  <g transform="translate(748 78)" opacity="0.78">
    <path d="M0,-8 C-8,-16 -18,-14 -24,-4 C-31,-5 -39,-11 -47,-22 C-49,-10 -44,-1 -34,7 C-27,12 -19,14 -10,10 C-8,18 -4,24 0,30 C4,24 8,18 10,10 C19,14 27,12 34,7 C44,-1 49,-10 47,-22 C39,-11 31,-5 24,-4 C18,-14 8,-16 0,-8 Z" fill="#0b0e14">
      <animateTransform attributeName="transform" type="translate" values="0 0;22 -8;44 0" dur="9s" repeatCount="indefinite" />
      <animate attributeName="opacity" values="0.62;0.9;0.62" dur="9s" repeatCount="indefinite" />
    </path>
  </g>

  <g transform="translate(698 258)">
    <circle cx="0" cy="0" r="7" fill="#f5d25f" opacity="0.28" />
    <circle cx="0" cy="0" r="18" fill="none" stroke="#f5d25f" stroke-opacity="0.18">
      <animate attributeName="r" values="10;28;10" dur="2.8s" repeatCount="indefinite" />
      <animate attributeName="stroke-opacity" values="0.22;0;0.22" dur="2.8s" repeatCount="indefinite" />
    </circle>
    <g>
      <animateTransform attributeName="transform" type="rotate" values="-8 0 0;8 0 0;-8 0 0" dur="7.2s" repeatCount="indefinite" />
      <polygon points="0,0 316,-184 394,-136 116,16" fill="url(#beam)" />
    </g>
  </g>

  <g transform="translate(0 284)">
    <rect width="1000" height="120" fill="#000000" />
    <path d="M0 120 L0 72 L30 72 L30 44 L60 44 L60 84 L92 84 L92 52 L120 52 L120 120 Z" fill="#06090f" />
    <path d="M104 120 L104 56 L142 56 L142 20 L176 20 L176 120 Z" fill="#0a0f18" />
    <path d="M166 120 L166 38 L204 38 L204 62 L236 62 L236 10 L268 10 L268 120 Z" fill="#0d121c" />
    <path d="M248 120 L248 50 L284 50 L284 18 L318 18 L318 120 Z" fill="#06090f" />
    <path d="M310 120 L310 24 L352 24 L352 -8 L384 -8 L384 120 Z" fill="#0d121c" />
    <path d="M646 120 L646 50 L680 50 L680 10 L716 10 L716 120 Z" fill="#09101a" />
    <path d="M702 120 L702 22 L738 22 L738 -18 L774 -18 L774 120 Z" fill="#0d121c" />
    <path d="M770 120 L770 58 L802 58 L802 0 L838 0 L838 120 Z" fill="#06090f" />
    <path d="M834 120 L834 40 L870 40 L870 -18 L908 -18 L908 120 Z" fill="#0d121c" />
    <path d="M900 120 L900 24 L936 24 L936 58 L964 58 L964 -4 L996 -4 L996 120 Z" fill="#09101a" />

    <g fill="#ffd86f" opacity="0.84">
      <rect x="116" y="84" width="6" height="8"><animate attributeName="opacity" values="0.18;0.88;0.18" dur="4.2s" repeatCount="indefinite" /></rect>
      <rect x="178" y="92" width="6" height="8"><animate attributeName="opacity" values="0.82;0.16;0.82" dur="5.2s" repeatCount="indefinite" /></rect>
      <rect x="318" y="68" width="6" height="8"><animate attributeName="opacity" values="0.74;0.14;0.74" dur="4.7s" repeatCount="indefinite" /></rect>
      <rect x="716" y="48" width="6" height="8"><animate attributeName="opacity" values="0.16;0.92;0.16" dur="3.9s" repeatCount="indefinite" /></rect>
      <rect x="848" y="78" width="6" height="8"><animate attributeName="opacity" values="0.18;0.94;0.18" dur="4.4s" repeatCount="indefinite" /></rect>
      <rect x="938" y="90" width="6" height="8"><animate attributeName="opacity" values="0.86;0.2;0.86" dur="6s" repeatCount="indefinite" /></rect>
    </g>
  </g>

  <g transform="translate(48 44)">
    <rect width="904" height="188" rx="26" fill="url(#panel-grad)" stroke="#1d2330" opacity="0.98" />
    <rect x="12" y="12" width="880" height="164" rx="20" fill="none" stroke="#0f1520" opacity="0.9" />
    <rect x="-160" y="0" width="160" height="188" fill="url(#panel-sheen)" opacity="0.16">
      <animate attributeName="x" values="-160;944;-160" dur="6.4s" repeatCount="indefinite" />
    </rect>
    <path d="M28 24 H92" stroke="#f5d25f" stroke-width="2" stroke-linecap="round" opacity="0.8" />
    <path d="M812 164 H876" stroke="#f5d25f" stroke-width="2" stroke-linecap="round" opacity="0.42" />

    <text x="34" y="36" class="mono" fill="#f5d25f" font-size="13">lohith // ai/ml engineer</text>
    <text x="34" y="102" class="display" fill="url(#name-grad)" font-size="92">lohith</text>
    <text x="36" y="146" class="ui" fill="#b9c2d8" font-size="21">AI / ML engineer shipping GenAI,</text>
    <text x="36" y="172" class="ui" fill="#b9c2d8" font-size="21">MLOps, and hybrid cloud systems</text>

    <rect x="36" y="124" width="220" height="4" rx="2" fill="#0f1520" />
    <rect x="36" y="124" width="126" height="4" rx="2" fill="#f5d25f">
      <animate attributeName="width" values="96;188;126;96" dur="4.6s" repeatCount="indefinite" />
    </rect>

    <rect x="640" y="24" width="234" height="140" rx="18" fill="#05080d" stroke="#0f1520" />
    <rect x="652" y="34" width="88" height="22" rx="11" fill="url(#chip-active)" stroke="#a98a2d" />
    <text x="696" y="49" text-anchor="middle" class="mono" fill="#f5d25f" font-size="11">current arc</text>
    <circle cx="852" cy="42" r="5" fill="#f5d25f">
      <animate attributeName="opacity" values="0.22;1;0.22" dur="1.8s" repeatCount="indefinite" />
    </circle>
    <text x="660" y="88" class="display" fill="#f6f9ff" font-size="36">UncovAI</text>
    <text x="660" y="112" class="ui" fill="#b9c2d8" font-size="18">Data Scientist</text>
    <text x="660" y="136" class="mono" fill="#96b8ff" font-size="13">Dec 2025 - Present</text>
    <text x="660" y="160" class="ui" fill="#73819d" font-size="14">previously: Ansys and Amadeus</text>
  </g>

  <g transform="translate(112 320)">
    <rect width="128" height="32" rx="16" fill="url(#chip-active)" stroke="#a98a2d" />
    <text x="64" y="21" text-anchor="middle" class="ui" fill="#f5d25f" font-size="14">GenAI</text>
    <rect x="146" width="128" height="32" rx="16" fill="#090d15" stroke="#1d2330" />
    <text x="210" y="21" text-anchor="middle" class="ui" fill="#f6f9ff" font-size="14">MLOps</text>
    <rect x="292" width="128" height="32" rx="16" fill="#090d15" stroke="#1d2330" />
    <text x="356" y="21" text-anchor="middle" class="ui" fill="#f6f9ff" font-size="14">AWS</text>
    <rect x="438" width="128" height="32" rx="16" fill="#090d15" stroke="#1d2330" />
    <text x="502" y="21" text-anchor="middle" class="ui" fill="#f6f9ff" font-size="14">Kubernetes</text>
  </g>
</svg>
