<svg viewBox="0 0 1000 404" xmlns="http://www.w3.org/2000/svg" width="1000" height="404" role="img" aria-label="Gotham-inspired profile banner for lohith">
  <defs>
    <linearGradient id="sky" x1="0" y1="0" x2="0" y2="1">
      <stop offset="0%" stop-color="#000000" />
      <stop offset="48%" stop-color="#02040a" />
      <stop offset="100%" stop-color="#050910" />
    </linearGradient>
    <radialGradient id="vignette" cx="50%" cy="28%" r="88%">
      <stop offset="0%" stop-color="#ffffff" stop-opacity="0" />
      <stop offset="100%" stop-color="#000000" stop-opacity="0.82" />
    </radialGradient>
    <radialGradient id="moon" cx="50%" cy="50%" r="58%">
      <stop offset="0%" stop-color="#fff9d2" stop-opacity="1" />
      <stop offset="66%" stop-color="#ffe187" stop-opacity="0.98" />
      <stop offset="100%" stop-color="#f5d25f" stop-opacity="0.08" />
    </radialGradient>
    <linearGradient id="beam" x1="0" y1="0" x2="1" y2="0">
      <stop offset="0%" stop-color="#f5d25f" stop-opacity="0.52" />
      <stop offset="32%" stop-color="#f5d25f" stop-opacity="0.2" />
      <stop offset="100%" stop-color="#f5d25f" stop-opacity="0" />
    </linearGradient>
    <linearGradient id="beam-soft" x1="0" y1="0" x2="1" y2="0">
      <stop offset="0%" stop-color="#f5d25f" stop-opacity="0.24" />
      <stop offset="40%" stop-color="#f5d25f" stop-opacity="0.08" />
      <stop offset="100%" stop-color="#f5d25f" stop-opacity="0" />
    </linearGradient>
    <linearGradient id="panel-sheen" x1="0" y1="0" x2="1" y2="1">
      <stop offset="0%" stop-color="#0b1018" />
      <stop offset="100%" stop-color="#03050a" />
    </linearGradient>
    <pattern id="grid" width="56" height="56" patternUnits="userSpaceOnUse">
      <path d="M56 0H0V56" fill="none" stroke="#0f1520" stroke-width="1" opacity="0.2" />
    </pattern>
    <filter id="soft-blur">
      <feGaussianBlur stdDeviation="16" />
    </filter>
    <filter id="moon-glow">
      <feGaussianBlur stdDeviation="18" />
    </filter>
    <filter id="signal-glow">
      <feGaussianBlur stdDeviation="8" result="blur" />
      <feMerge>
        <feMergeNode in="blur" />
        <feMergeNode in="SourceGraphic" />
      </feMerge>
    </filter>
    <clipPath id="beam-clip">
      <rect x="0" y="0" width="1000" height="276" />
    </clipPath>
    <style>
      .display { font-family: "Ubuntu Condensed", "Ubuntu", "Avenir Next Condensed", "Segoe UI", sans-serif; letter-spacing: 0.6px; font-weight: 700; }
      .mono { font-family: "Ubuntu Mono", "SFMono-Regular", "Consolas", "Liberation Mono", monospace; }
      .ui { font-family: "Ubuntu", "Avenir Next", "Segoe UI", "Helvetica Neue", Arial, sans-serif; }
    </style>
  </defs>

  <rect width="1000" height="404" fill="#000000" />
  <rect width="1000" height="276" fill="url(#sky)" />
  <rect width="1000" height="276" fill="url(#grid)" opacity="0.32" />
  <rect width="1000" height="404" fill="url(#vignette)" />

  <g opacity="0.74">
    <circle cx="84" cy="36" r="1.4" fill="#ffffff"><animate attributeName="opacity" values="0.12;0.66;0.12" dur="4.1s" repeatCount="indefinite" /></circle>
    <circle cx="164" cy="74" r="1.2" fill="#ffffff"><animate attributeName="opacity" values="0.18;0.8;0.18" dur="5.2s" repeatCount="indefinite" /></circle>
    <circle cx="286" cy="42" r="1.1" fill="#ffffff"><animate attributeName="opacity" values="0.1;0.58;0.1" dur="3.2s" repeatCount="indefinite" /></circle>
    <circle cx="434" cy="84" r="1.2" fill="#ffffff"><animate attributeName="opacity" values="0.14;0.76;0.14" dur="4.7s" repeatCount="indefinite" /></circle>
    <circle cx="706" cy="58" r="1.3" fill="#ffffff"><animate attributeName="opacity" values="0.1;0.84;0.1" dur="5.1s" repeatCount="indefinite" /></circle>
    <circle cx="936" cy="44" r="1.5" fill="#ffffff"><animate attributeName="opacity" values="0.12;0.9;0.12" dur="5.8s" repeatCount="indefinite" /></circle>
  </g>

  <g filter="url(#soft-blur)" opacity="0.12">
    <ellipse cx="278" cy="170" rx="290" ry="44" fill="#2d394c">
      <animateTransform attributeName="transform" type="translate" values="-24 0;18 0;-24 0" dur="14s" repeatCount="indefinite" />
    </ellipse>
    <ellipse cx="812" cy="184" rx="250" ry="40" fill="#2d394c">
      <animateTransform attributeName="transform" type="translate" values="16 0;-20 0;16 0" dur="13s" repeatCount="indefinite" />
    </ellipse>
  </g>

  <circle cx="812" cy="86" r="56" fill="#f5d25f" opacity="0.08" filter="url(#moon-glow)" />
  <circle cx="812" cy="86" r="48" fill="url(#moon)" />
  <circle cx="812" cy="86" r="66" fill="none" stroke="#f5d25f" stroke-opacity="0.12">
    <animate attributeName="r" values="62;68;62" dur="3.8s" repeatCount="indefinite" />
    <animate attributeName="stroke-opacity" values="0.08;0.18;0.08" dur="3.8s" repeatCount="indefinite" />
  </circle>

  <g transform="translate(744 80)" opacity="0.82">
    <path d="M0,-6 C-8,-12 -16,-10 -22,-2 C-28,-2 -35,-7 -42,-16 C-44,-8 -40,-1 -31,5 C-24,10 -17,11 -9,8 C-7,14 -3,19 0,23 C3,19 7,14 9,8 C17,11 24,10 31,5 C40,-1 44,-8 42,-16 C35,-7 28,-2 22,-2 C16,-10 8,-12 0,-6 Z" fill="#0b0e14">
      <animateTransform attributeName="transform" type="translate" values="0 0;24 -8;48 0" dur="9s" repeatCount="indefinite" />
      <animate attributeName="opacity" values="0.65;0.9;0.65" dur="9s" repeatCount="indefinite" />
    </path>
  </g>

  <g clip-path="url(#beam-clip)" transform="translate(694 258)">
    <circle cx="0" cy="0" r="7" fill="#f5d25f" opacity="0.4" />
    <circle cx="0" cy="0" r="18" fill="none" stroke="#f5d25f" stroke-opacity="0.22">
      <animate attributeName="r" values="10;28;10" dur="2.6s" repeatCount="indefinite" />
      <animate attributeName="stroke-opacity" values="0.24;0;0.24" dur="2.6s" repeatCount="indefinite" />
    </circle>
    <g>
      <animateTransform attributeName="transform" type="rotate" values="-11 0 0;9 0 0;-11 0 0" dur="7.2s" repeatCount="indefinite" />
      <polygon points="0,0 318,-188 392,-136 120,18" fill="url(#beam)" />
      <polygon points="0,0 290,-170 330,-136 98,18" fill="url(#beam-soft)" />
      <g transform="translate(198 -102) scale(1.16)" filter="url(#signal-glow)">
        <path d="M0,-10 C-8,-18 -18,-16 -24,-5 C-31,-6 -39,-12 -47,-23 C-49,-10 -44,-1 -34,7 C-27,12 -19,14 -10,10 C-8,17 -4,23 0,29 C4,23 8,17 10,10 C19,14 27,12 34,7 C44,-1 49,-10 47,-23 C39,-12 31,-6 24,-5 C18,-16 8,-18 0,-10 Z" fill="#f5d25f">
          <animate attributeName="opacity" values="0.52;0.94;0.52" dur="2.8s" repeatCount="indefinite" />
          <animateTransform attributeName="transform" type="translate" values="0 0;0 -2;0 0" dur="2.8s" repeatCount="indefinite" />
        </path>
      </g>
    </g>
  </g>

  <g opacity="0.84">
    <circle cx="110" cy="-10" r="2" fill="#dce9ff"><animate attributeName="cy" values="-10;420" dur="10.4s" repeatCount="indefinite" /><animate attributeName="cx" values="110;120;102" dur="10.4s" repeatCount="indefinite" /><animate attributeName="opacity" values="0;0.9;0.9;0" dur="10.4s" repeatCount="indefinite" /></circle>
    <circle cx="198" cy="-26" r="1.5" fill="#dce9ff"><animate attributeName="cy" values="-26;420" dur="8.8s" repeatCount="indefinite" begin="-2.2s" /><animate attributeName="cx" values="198;188;206" dur="8.8s" repeatCount="indefinite" begin="-2.2s" /><animate attributeName="opacity" values="0;0.76;0.76;0" dur="8.8s" repeatCount="indefinite" begin="-2.2s" /></circle>
    <circle cx="312" cy="-18" r="2.3" fill="#dce9ff"><animate attributeName="cy" values="-18;420" dur="9.4s" repeatCount="indefinite" begin="-4.4s" /><animate attributeName="cx" values="312;324;302" dur="9.4s" repeatCount="indefinite" begin="-4.4s" /><animate attributeName="opacity" values="0;0.9;0.9;0" dur="9.4s" repeatCount="indefinite" begin="-4.4s" /></circle>
    <circle cx="436" cy="-14" r="1.7" fill="#dce9ff"><animate attributeName="cy" values="-14;420" dur="7.8s" repeatCount="indefinite" begin="-1.4s" /><animate attributeName="cx" values="436;426;444" dur="7.8s" repeatCount="indefinite" begin="-1.4s" /><animate attributeName="opacity" values="0;0.68;0.68;0" dur="7.8s" repeatCount="indefinite" begin="-1.4s" /></circle>
    <circle cx="548" cy="-30" r="2" fill="#dce9ff"><animate attributeName="cy" values="-30;420" dur="10.8s" repeatCount="indefinite" begin="-6.1s" /><animate attributeName="cx" values="548;560;540" dur="10.8s" repeatCount="indefinite" begin="-6.1s" /><animate attributeName="opacity" values="0;0.84;0.84;0" dur="10.8s" repeatCount="indefinite" begin="-6.1s" /></circle>
    <circle cx="668" cy="-24" r="1.6" fill="#dce9ff"><animate attributeName="cy" values="-24;420" dur="8.2s" repeatCount="indefinite" begin="-2.8s" /><animate attributeName="cx" values="668;658;676" dur="8.2s" repeatCount="indefinite" begin="-2.8s" /><animate attributeName="opacity" values="0;0.74;0.74;0" dur="8.2s" repeatCount="indefinite" begin="-2.8s" /></circle>
    <circle cx="792" cy="-18" r="2.1" fill="#dce9ff"><animate attributeName="cy" values="-18;420" dur="9.8s" repeatCount="indefinite" begin="-4.1s" /><animate attributeName="cx" values="792;804;784" dur="9.8s" repeatCount="indefinite" begin="-4.1s" /><animate attributeName="opacity" values="0;0.88;0.88;0" dur="9.8s" repeatCount="indefinite" begin="-4.1s" /></circle>
    <circle cx="902" cy="-12" r="1.7" fill="#dce9ff"><animate attributeName="cy" values="-12;420" dur="8.6s" repeatCount="indefinite" begin="-5.2s" /><animate attributeName="cx" values="902;892;910" dur="8.6s" repeatCount="indefinite" begin="-5.2s" /><animate attributeName="opacity" values="0;0.78;0.78;0" dur="8.6s" repeatCount="indefinite" begin="-5.2s" /></circle>
    <path d="M142 6 L144 28" stroke="#dce9ff" stroke-width="1.1" stroke-linecap="round" opacity="0.38"><animate attributeName="transform" values="translate(0 -18);translate(12 412)" dur="7.4s" repeatCount="indefinite" /></path>
    <path d="M510 0 L512 22" stroke="#dce9ff" stroke-width="1.1" stroke-linecap="round" opacity="0.34"><animate attributeName="transform" values="translate(0 -22);translate(-8 410)" dur="6.8s" repeatCount="indefinite" begin="-2s" /></path>
    <path d="M830 4 L832 24" stroke="#dce9ff" stroke-width="1.1" stroke-linecap="round" opacity="0.36"><animate attributeName="transform" values="translate(0 -22);translate(10 410)" dur="7.6s" repeatCount="indefinite" begin="-3.8s" /></path>
  </g>

  <g transform="translate(0 268)">
    <rect width="1000" height="136" fill="#000000" />
    <path d="M0 112 L0 72 L26 72 L26 36 L58 36 L58 82 L88 82 L88 48 L114 48 L114 112 Z" fill="#06090f" />
    <path d="M92 112 L92 56 L132 56 L132 18 L164 18 L164 112 Z" fill="#0a0f18" />
    <path d="M152 112 L152 38 L190 38 L190 62 L222 62 L222 6 L252 6 L252 112 Z" fill="#0d121c" />
    <path d="M230 112 L230 48 L266 48 L266 16 L300 16 L300 112 Z" fill="#06090f" />
    <path d="M296 112 L296 24 L338 24 L338 -18 L366 -18 L366 112 Z" fill="#0d121c" />
    <path d="M354 112 L354 54 L382 54 L382 18 L412 18 L412 112 Z" fill="#09101a" />
    <path d="M618 112 L618 52 L648 52 L648 6 L680 6 L680 112 Z" fill="#09101a" />
    <path d="M668 112 L668 22 L704 22 L704 -16 L740 -16 L740 112 Z" fill="#0d121c" />
    <path d="M730 112 L730 58 L762 58 L762 0 L796 0 L796 112 Z" fill="#06090f" />
    <path d="M790 112 L790 38 L826 38 L826 -22 L864 -22 L864 112 Z" fill="#0d121c" />
    <path d="M850 112 L850 22 L886 22 L886 56 L914 56 L914 -12 L946 -12 L946 112 Z" fill="#09101a" />
    <path d="M924 112 L924 50 L954 50 L954 18 L980 18 L980 112 Z" fill="#0d121c" />

    <g fill="#ffd86f" opacity="0.9">
      <rect x="106" y="72" width="6" height="8"><animate attributeName="opacity" values="0.12;0.88;0.12" dur="4.2s" repeatCount="indefinite" /></rect>
      <rect x="154" y="84" width="6" height="8"><animate attributeName="opacity" values="0.84;0.18;0.84" dur="5.4s" repeatCount="indefinite" /></rect>
      <rect x="186" y="84" width="6" height="8"><animate attributeName="opacity" values="0.2;0.9;0.2" dur="3.9s" repeatCount="indefinite" /></rect>
      <rect x="306" y="62" width="6" height="8"><animate attributeName="opacity" values="0.76;0.16;0.76" dur="4.6s" repeatCount="indefinite" /></rect>
      <rect x="704" y="44" width="6" height="8"><animate attributeName="opacity" values="0.14;0.92;0.14" dur="3.7s" repeatCount="indefinite" /></rect>
      <rect x="738" y="84" width="6" height="8"><animate attributeName="opacity" values="0.74;0.14;0.74" dur="5.1s" repeatCount="indefinite" /></rect>
      <rect x="870" y="70" width="6" height="8"><animate attributeName="opacity" values="0.18;0.94;0.18" dur="4.2s" repeatCount="indefinite" /></rect>
      <rect x="904" y="86" width="6" height="8"><animate attributeName="opacity" values="0.88;0.2;0.88" dur="6.2s" repeatCount="indefinite" /></rect>
    </g>
  </g>

  <g transform="translate(42 34)">
    <rect width="560" height="220" rx="22" fill="url(#panel-sheen)" stroke="#1d2330" opacity="0.97" />
    <rect x="22" y="20" width="132" height="26" rx="13" fill="#090d15" stroke="#1d2330" />
    <text x="88" y="37" text-anchor="middle" class="mono" fill="#f5d25f" font-size="12">NIGHT PROTOCOL</text>
    <text x="24" y="94" class="display" fill="#f6f9ff" font-size="82">lohith</text>
    <text x="26" y="130" class="ui" fill="#b9c2d8" font-size="20">AI systems, backend flows, and developer tools after dark</text>
    <text x="26" y="164" class="mono" fill="#73819d" font-size="13">deeper black // ubuntu-style type // snow drift // signal sweep</text>
    <line x1="26" y1="180" x2="220" y2="180" stroke="#f5d25f" stroke-width="4" stroke-linecap="round" />
    <rect x="26" y="192" width="180" height="4" rx="2" fill="#0f1520" />
    <rect x="26" y="192" width="104" height="4" rx="2" fill="#f5d25f">
      <animate attributeName="width" values="82;156;98;82" dur="4.6s" repeatCount="indefinite" />
    </rect>
    <text x="26" y="216" class="mono" fill="#b9c2d8" font-size="12">tracking: lohith // city grid online</text>
  </g>

  <g transform="translate(50 300)">
    <rect width="130" height="34" rx="17" fill="#090d15" stroke="#1d2330" />
    <text x="65" y="22" text-anchor="middle" class="ui" fill="#f5d25f" font-size="14">AI Systems</text>
    <rect x="142" width="118" height="34" rx="17" fill="#090d15" stroke="#1d2330" />
    <text x="201" y="22" text-anchor="middle" class="ui" fill="#f6f9ff" font-size="14">Backend</text>
    <rect x="272" width="136" height="34" rx="17" fill="#090d15" stroke="#1d2330" />
    <text x="340" y="22" text-anchor="middle" class="ui" fill="#f6f9ff" font-size="14">Automation</text>
    <rect x="420" width="114" height="34" rx="17" fill="#090d15" stroke="#1d2330" />
    <text x="477" y="22" text-anchor="middle" class="ui" fill="#f6f9ff" font-size="14">Dark UI</text>
  </g>

  <g transform="translate(732 292)">
    <rect width="220" height="70" rx="16" fill="#03060b" stroke="#1d2330" />
    <text x="18" y="24" class="mono" fill="#f5d25f" font-size="12">signal.status</text>
    <text x="18" y="47" class="ui" fill="#f6f9ff" font-size="16">mode: snow_patrol</text>
    <text x="18" y="63" class="ui" fill="#b9c2d8" font-size="14">lights up // pressure on // motion armed</text>
    <circle cx="190" cy="34" r="6" fill="#f5d25f">
      <animate attributeName="opacity" values="0.2;1;0.2" dur="1.7s" repeatCount="indefinite" />
    </circle>
  </g>
</svg>
