<svg viewBox="0 0 1000 472" xmlns="http://www.w3.org/2000/svg" width="1000" height="472" role="img" aria-label="Profile overview board for lohith">
  <defs>
    <linearGradient id="panel-grad" x1="0" y1="0" x2="1" y2="1">
      <stop offset="0%" stop-color="#0b1018" />
      <stop offset="100%" stop-color="#03050a" />
    </linearGradient>
    <linearGradient id="sheen" x1="0" y1="0" x2="1" y2="0">
      <stop offset="0%" stop-color="#ffffff" stop-opacity="0" />
      <stop offset="50%" stop-color="#ffffff" stop-opacity="0.08" />
      <stop offset="100%" stop-color="#ffffff" stop-opacity="0" />
    </linearGradient>
    <linearGradient id="accent-bar" x1="0" y1="0" x2="1" y2="0">
      <stop offset="0%" stop-color="#f5d25f" stop-opacity="0" />
      <stop offset="50%" stop-color="#f5d25f" stop-opacity="0.3" />
      <stop offset="100%" stop-color="#f5d25f" stop-opacity="0" />
    </linearGradient>
    <linearGradient id="chip-active" x1="0" y1="0" x2="1" y2="1">
      <stop offset="0%" stop-color="#5a4510" />
      <stop offset="100%" stop-color="#2b2108" />
    </linearGradient>
    <pattern id="grid" width="28" height="28" patternUnits="userSpaceOnUse">
      <path d="M28 0H0V28" fill="none" stroke="#0f1520" stroke-width="1" opacity="0.18" />
    </pattern>
    <style>
      .display { font-family: "Ubuntu Condensed", "Ubuntu", "Avenir Next Condensed", "Segoe UI", sans-serif; letter-spacing: 0.45px; font-weight: 700; }
      .mono { font-family: "Ubuntu Mono", "SFMono-Regular", "Consolas", "Liberation Mono", monospace; }
      .ui { font-family: "Ubuntu", "Avenir Next", "Segoe UI", "Helvetica Neue", Arial, sans-serif; }
    </style>
  </defs>

  <rect width="1000" height="472" fill="#000000" />
  <rect x="24" y="18" width="952" height="436" rx="24" fill="url(#panel-grad)" stroke="#1d2330" />
  <rect x="24" y="18" width="952" height="436" rx="24" fill="url(#grid)" opacity="0.12" />
  <rect x="-180" y="18" width="180" height="436" fill="url(#sheen)" opacity="0.18">
    <animate attributeName="x" values="-180;1120;-180" dur="7.2s" repeatCount="indefinite" />
  </rect>

  <text x="46" y="48" class="mono" fill="#f5d25f" font-size="13">profile.overview</text>
  <text x="954" y="48" text-anchor="end" class="mono" fill="#73819d" font-size="12">resume-driven layout</text>

  <g transform="translate(46 68)">
    <rect width="212" height="64" rx="18" fill="#05080d" stroke="#1d2330" />
    <rect x="-80" y="0" width="80" height="64" fill="url(#accent-bar)" opacity="0.18">
      <animate attributeName="x" values="-80;292;-80" dur="4.8s" repeatCount="indefinite" />
    </rect>
    <rect x="18" y="14" width="66" height="3" rx="1.5" fill="#f5d25f" />
    <circle cx="188" cy="18" r="4" fill="#f5d25f">
      <animate attributeName="opacity" values="0.2;1;0.2" dur="1.9s" repeatCount="indefinite" />
    </circle>
    <text x="18" y="24" class="mono" fill="#73819d" font-size="11">public contributions</text>
    <text x="18" y="52" class="display" fill="#f6f9ff" font-size="34">27</text>
  </g>

  <g transform="translate(274 68)">
    <rect width="212" height="64" rx="18" fill="#05080d" stroke="#1d2330" />
    <rect x="18" y="14" width="52" height="3" rx="1.5" fill="#96b8ff" />
    <circle cx="188" cy="18" r="4" fill="#96b8ff">
      <animate attributeName="opacity" values="0.2;1;0.2" dur="2.1s" repeatCount="indefinite" />
    </circle>
    <text x="18" y="24" class="mono" fill="#73819d" font-size="11">active days</text>
    <text x="18" y="52" class="display" fill="#f6f9ff" font-size="34">14</text>
  </g>

  <g transform="translate(502 68)">
    <rect width="212" height="64" rx="18" fill="#05080d" stroke="#1d2330" />
    <rect x="18" y="14" width="48" height="3" rx="1.5" fill="#f5d25f" />
    <text x="18" y="24" class="mono" fill="#73819d" font-size="11">public repos</text>
    <text x="18" y="52" class="display" fill="#f6f9ff" font-size="34">1</text>
  </g>

  <g transform="translate(730 68)">
    <rect width="212" height="64" rx="18" fill="#05080d" stroke="#1d2330" />
    <rect x="18" y="14" width="42" height="3" rx="1.5" fill="#96b8ff" />
    <text x="18" y="24" class="mono" fill="#73819d" font-size="11">followers</text>
    <text x="18" y="52" class="display" fill="#f6f9ff" font-size="34">0</text>
  </g>

  <g transform="translate(46 154)">
    <rect width="548" height="248" rx="22" fill="#020407" stroke="#0f1520" />
    <rect x="0" y="0" width="548" height="248" rx="22" fill="url(#grid)" opacity="0.1" />
    <text x="24" y="34" class="mono" fill="#f5d25f" font-size="13">about</text>
    <rect x="24" y="40" width="82" height="3" rx="1.5" fill="#f5d25f" />
    <text x="24" y="58" class="ui" fill="#b9c2d8" font-size="15">what I build and how I ship it</text>

    <circle cx="30" cy="86" r="4" fill="#f5d25f" />
    <text x="44" y="92" class="ui" fill="#f6f9ff" font-size="16">production GenAI on AWS + Kubernetes</text>
    <circle cx="30" cy="114" r="4" fill="#96b8ff" />
    <text x="44" y="120" class="ui" fill="#f6f9ff" font-size="16">evaluation, release, and MLOps workflow automation</text>
    <circle cx="30" cy="142" r="4" fill="#f6f9ff" />
    <text x="44" y="148" class="ui" fill="#f6f9ff" font-size="16">client-facing delivery and technical communication</text>

    <text x="24" y="168" class="mono" fill="#f5d25f" font-size="13">recent path</text>
    <rect x="20" y="176" width="508" height="72" rx="16" fill="#05080d" stroke="#1d2330" />

    <text x="24" y="192" class="display" fill="#f6f9ff" font-size="22">UncovAI</text>
    <text x="168" y="192" class="ui" fill="#b9c2d8" font-size="14">Data Scientist</text>
    <text x="524" y="192" text-anchor="end" class="mono" fill="#f5d25f" font-size="11">Dec 2025 - Present</text>

    <text x="24" y="220" class="display" fill="#f6f9ff" font-size="22">Ansys</text>
    <text x="168" y="220" class="ui" fill="#b9c2d8" font-size="14">DevSecOps / MLOps Engineer</text>
    <text x="524" y="220" text-anchor="end" class="mono" fill="#96b8ff" font-size="11">Mar 2025 - Oct 2025</text>

    <text x="24" y="244" class="display" fill="#f6f9ff" font-size="18">Amadeus</text>
    <text x="168" y="244" class="ui" fill="#b9c2d8" font-size="13">AI / ML Engineer</text>
    <text x="524" y="244" text-anchor="end" class="mono" fill="#b9c2d8" font-size="11">Summer 2024</text>
  </g>

  <g transform="translate(618 154)">
    <rect width="324" height="108" rx="22" fill="#020407" stroke="#0f1520" />
    <rect x="0" y="0" width="324" height="108" rx="22" fill="url(#grid)" opacity="0.1" />
    <text x="20" y="32" class="mono" fill="#f5d25f" font-size="13">stack</text>

    <rect x="20" y="48" width="90" height="24" rx="12" fill="url(#chip-active)" stroke="#a98a2d" />
    <text x="65" y="64" text-anchor="middle" class="mono" fill="#f5d25f" font-size="12">Python</text>
    <rect x="118" y="48" width="90" height="24" rx="12" fill="#090d15" stroke="#1d2330" />
    <text x="163" y="64" text-anchor="middle" class="mono" fill="#b9c2d8" font-size="12">AWS</text>
    <rect x="216" y="48" width="88" height="24" rx="12" fill="#090d15" stroke="#1d2330" />
    <text x="260" y="64" text-anchor="middle" class="mono" fill="#b9c2d8" font-size="12">Kubernetes</text>

    <rect x="20" y="78" width="90" height="24" rx="12" fill="#090d15" stroke="#1d2330" />
    <text x="65" y="94" text-anchor="middle" class="mono" fill="#b9c2d8" font-size="12">MLflow</text>
    <rect x="118" y="78" width="90" height="24" rx="12" fill="#090d15" stroke="#1d2330" />
    <text x="163" y="94" text-anchor="middle" class="mono" fill="#b9c2d8" font-size="12">Kubeflow</text>
    <rect x="216" y="78" width="88" height="24" rx="12" fill="#090d15" stroke="#1d2330" />
    <text x="260" y="94" text-anchor="middle" class="mono" fill="#b9c2d8" font-size="12">SageMaker</text>
  </g>

  <g transform="translate(618 280)">
    <rect width="324" height="122" rx="22" fill="#020407" stroke="#0f1520" />
    <rect x="0" y="0" width="324" height="122" rx="22" fill="url(#grid)" opacity="0.1" />
    <rect x="-80" y="0" width="80" height="122" fill="url(#accent-bar)" opacity="0.18">
      <animate attributeName="x" values="-80;404;-80" dur="5.2s" repeatCount="indefinite" />
    </rect>
    <text x="20" y="32" class="mono" fill="#f5d25f" font-size="13">org spotlight</text>
    <circle cx="292" cy="28" r="5" fill="#f5d25f">
      <animate attributeName="opacity" values="0.22;1;0.22" dur="1.8s" repeatCount="indefinite" />
    </circle>
    <text x="20" y="62" class="display" fill="#f6f9ff" font-size="30">UncovAI</text>
    <text x="20" y="82" class="ui" fill="#b9c2d8" font-size="14">production GenAI and evaluation workflows</text>
    <rect x="20" y="90" width="92" height="20" rx="10" fill="#090d15" stroke="#1d2330" />
    <text x="66" y="104" text-anchor="middle" class="mono" fill="#73819d" font-size="11">uncovai.com/</text>
  </g>

  <g transform="translate(46 420)">
    <rect width="896" height="18" rx="9" fill="#04080e" stroke="#1d2330" />
    <rect x="-110" y="0" width="110" height="18" fill="url(#accent-bar)" opacity="0.22">
      <animate attributeName="x" values="-110;936;-110" dur="4.8s" repeatCount="indefinite" />
    </rect>
    <text x="14" y="12" class="mono" fill="#f5d25f" font-size="11">production systems • evaluation-first delivery • stakeholder communication</text>
    <circle cx="860" cy="9" r="2" fill="#f5d25f">
      <animate attributeName="opacity" values="0.2;1;0.2" dur="1.8s" repeatCount="indefinite" />
    </circle>
    <circle cx="872" cy="9" r="2" fill="#96b8ff">
      <animate attributeName="opacity" values="1;0.2;1" dur="2.1s" repeatCount="indefinite" />
    </circle>
    <circle cx="884" cy="9" r="2" fill="#f6f9ff">
      <animate attributeName="opacity" values="0.24;0.92;0.24" dur="2.4s" repeatCount="indefinite" />
    </circle>
  </g>
</svg>
